<?xml version="1.0" standalone="no"?><!DOCTYPE svg PUBLIC "-//W3C//DTD SVG 1.1//EN" "http://www.w3.org/Graphics/SVG/1.1/DTD/svg11.dtd"><svg t="1680358774268" class="icon" viewBox="0 0 1024 1024" version="1.1" xmlns="http://www.w3.org/2000/svg" p-id="6358" xmlns:xlink="http://www.w3.org/1999/xlink" width="200" height="200"><path d="M887.808 116.93568a107.29984 107.29984 0 0 0-43.32032-11.42784c-50.99008-10.32192-120.17664 5.56544-174.98624 40.14592 16.16384-46.60224-45.39904-26.15808-68.864-18.99008-75.40736 23.02464-143.11936 64.6656-203.48416 121.52832 5.33504-39.55712-37.0944-16.47104-67.4304 13.15328-59.86304 58.53184-107.47904 128.39424-136.58624 212.94592-25.89696 75.25376-25.728 151.59296-2.49856 222.4896 78.55616-102.1952 153.25696-199.86944 249.43616-298.09664 107.65824-110.08512 236.29824-194.72896 310.9888-202.32192C469.632 363.31008 283.52 639.49312 102.4 921.6H416.06656v-14.21312H135.51104c5.32992-2.77504 9.984-6.27712 14.58176-12.2112 20.87936-26.93632 38.03136-57.86624 60.1344-83.51232 27.8528-32.2304 29.53216-29.50656 53.48864-30.24384 46.63296-1.41312 93.76256-5.4528 139.56096-15.34976 97.41824-21.05344 180.5312-73.41568 244.11136-163.67616 15.86176-22.51776 31.27808-60.86144-9.73824-59.35104 14.464-8.04352 24.73984-12.93824 34.31424-19.21536 74.624-48.9472 143.86176-105.12896 187.74016-193.85856 11.84256-23.94624 25.344-69.69856-14.6176-60.75392 22.0416-25.33888 43.79136-46.23872 61.12256-71.21408 25.72288-37.03808 18.94912-62.72512-18.40128-81.06496z" fill="#228b22" p-id="6359"></path></svg>